# xmcd
#
# Track frame offsets:
#	150
#	8684
#	18359
#	29014
#	37649
#	52847
#	70737
#	80111
#	94996
#	105833
#	114526
#	126256
#	137203
#	146012
#
# Disc length: 2078 seconds
#
# Revision: 1
# Processed by: cddbd v1.5.2PL0 Copyright (c) Steve Scherf et al.
# Submitted via: audiograbber 1.83.01
#
DISCID=b3081c0e
DTITLE=Elvis Presley - Christmas With Elvis
DYEAR=1900
DGENRE=Ballad
TTITLE0=Santa Bring Back My Bay (To Me)
TTITLE1=Blue Christmas
TTITLE2=Santa Claus Is Back In Town
TTITLE3=I'll Be Home For Christmas
TTITLE4=(There'll Be) Peace In The Valley (For Me)
TTITLE5=It Is No Secret (What We Can Do)
TTITLE6=I Believe
TTITLE7=Take My Hand, Precious Lord
TTITLE8=White Christmas
TTITLE9=Here Comes Santa Claus (Right Down Santa Claus Lane)
TTITLE10=O Little Town Of Betlehem
TTITLE11=Silent Night
TTITLE12=I Want Elvis For Christmas (The Holly Twins)
TTITLE13=I Want To Spend Christmas With Elvis (Marlene Paula)
EXTD=
EXTT0=
EXTT1=
EXTT2=
EXTT3=
EXTT4=
EXTT5=
EXTT6=
EXTT7=
EXTT8=
EXTT9=
EXTT10=
EXTT11=
EXTT12=
EXTT13=
PLAYORDER=
